<?xml version="1.0" encoding="utf-8"?>
<!-- Generator: Adobe Illustrator 17.1.0, SVG Export Plug-In . SVG Version: 6.00 Build 0)  -->
<!DOCTYPE svg PUBLIC "-//W3C//DTD SVG 1.1//EN" "http://www.w3.org/Graphics/SVG/1.1/DTD/svg11.dtd">
<svg version="1.1" id="Layer_1" xmlns="http://www.w3.org/2000/svg" xmlns:xlink="http://www.w3.org/1999/xlink" x="0px" y="0px"
	 viewBox="0 0 25 25" enable-background="new 0 0 25 25" xml:space="preserve">
<rect width="25" height="25"/>
<path fill="#FFFFFF" d="M10.823,12.5v6.659h2.684V12.5h1.783l0.25-2.34h-2.013c-0.013-0.109-0.02-0.241-0.02-0.398V9.343
	c0-0.163,0.007-0.336,0.02-0.52c0-0.163,0.033-0.291,0.1-0.382c0.067-0.092,0.146-0.159,0.236-0.2c0.09-0.04,0.175-0.06,0.255-0.06
	h0.19h1.232v-2.34h-1.322c-0.627,0-1.157,0.055-1.587,0.164c-0.431,0.11-0.78,0.278-1.047,0.503s-0.461,0.509-0.581,0.851
	c-0.12,0.342-0.18,0.753-0.18,1.231v1.57H9.46v2.34H10.823z"/>
</svg>
