<?xml version="1.0" encoding="utf-8"?>
<!-- Generator: Adobe Illustrator 17.1.0, SVG Export Plug-In . SVG Version: 6.00 Build 0)  -->
<!DOCTYPE svg PUBLIC "-//W3C//DTD SVG 1.1//EN" "http://www.w3.org/Graphics/SVG/1.1/DTD/svg11.dtd">
<svg version="1.1" id="Layer_1" xmlns="http://www.w3.org/2000/svg" xmlns:xlink="http://www.w3.org/1999/xlink" x="0px" y="0px"
	 viewBox="0 0 25 25" enable-background="new 0 0 25 25" xml:space="preserve">
<rect width="25" height="25"/>
<path fill="#FFFFFF" d="M7.061,16.547c0.794,0.461,1.635,0.77,2.522,0.93c0.515,0.098,1.037,0.148,1.564,0.148
	c0.366,0,0.732-0.025,1.097-0.074c0.9-0.111,1.724-0.341,2.473-0.691c0.743-0.338,1.346-0.747,1.807-1.225
	c0.462-0.479,0.815-0.939,1.061-1.382c0.3-0.503,0.51-1.026,0.63-1.565c0.305,0,0.57-0.031,0.795-0.092
	c0.225-0.061,0.406-0.129,0.544-0.203c0.162-0.092,0.297-0.2,0.405-0.323c-0.132,0.049-0.278,0.061-0.436,0.037
	c-0.159-0.025-0.319-0.055-0.481-0.092c-0.186-0.055-0.372-0.113-0.558-0.174c0.288-0.025,0.526-0.094,0.715-0.208
	c0.189-0.114,0.337-0.225,0.445-0.336c0.138-0.135,0.243-0.28,0.315-0.433c-0.108,0.098-0.26,0.16-0.454,0.184
	c-0.195,0.025-0.385,0.037-0.571,0.037c-0.222,0-0.45-0.018-0.684-0.055c-0.137-0.694-0.37-1.234-0.696-1.621
	c-0.327-0.387-0.667-0.681-1.021-0.884c-0.401-0.227-0.842-0.378-1.322-0.452c0.192-0.055,0.363-0.114,0.513-0.175
	c0.138-0.061,0.255-0.124,0.351-0.189c0.095-0.065,0.137-0.145,0.125-0.244c-0.024-0.086-0.082-0.132-0.175-0.138
	c-0.093-0.006-0.187,0.003-0.283,0.028c-0.12,0.037-0.255,0.086-0.405,0.148c0.048-0.025,0.086-0.061,0.113-0.111
	c0.027-0.049,0.046-0.107,0.058-0.171c0.012-0.064,0.018-0.139,0.018-0.225c-0.114,0.025-0.22,0.067-0.319,0.125
	c-0.099,0.058-0.19,0.118-0.274,0.179c-0.102,0.061-0.195,0.129-0.279,0.203V6.994c-0.45,0.387-0.821,0.806-1.115,1.257
	c-0.294,0.452-0.533,0.88-0.719,1.286c-0.228,0.466-0.396,0.933-0.504,1.399c-0.096-0.128-0.239-0.268-0.431-0.419
	c-0.192-0.151-0.414-0.3-0.666-0.451c-0.251-0.151-0.521-0.302-0.809-0.456L9.556,9.178C8.879,8.852,8.147,8.527,7.362,8.201
	C7.314,8.306,7.29,8.415,7.29,8.529c0,0.114,0.024,0.229,0.072,0.346C7.458,9.11,7.593,9.331,7.767,9.54
	c0.198,0.24,0.437,0.48,0.719,0.72c-0.06-0.037-0.13-0.058-0.211-0.065c-0.081-0.006-0.158-0.003-0.229,0.009
	c-0.09,0.012-0.177,0.031-0.261,0.055c0,0.339,0.067,0.613,0.202,0.822c0.135,0.21,0.289,0.364,0.463,0.462
	c0.198,0.141,0.42,0.231,0.665,0.267c-0.095,0-0.194,0.024-0.296,0.07c-0.102,0.046-0.195,0.094-0.279,0.143
	c-0.096,0.061-0.186,0.129-0.27,0.203c0.132,0.29,0.303,0.497,0.513,0.623c0.21,0.127,0.407,0.22,0.593,0.282
	c0.18,0.055,0.369,0.083,0.567,0.083h0.108c-0.084,0.038-0.162,0.087-0.234,0.149c-0.06,0.061-0.119,0.134-0.176,0.217
	s-0.097,0.185-0.121,0.308c0.012,0.204,0.068,0.356,0.166,0.458c0.099,0.101,0.216,0.176,0.351,0.226
	c0.135,0.049,0.301,0.086,0.499,0.111c-0.324,0.252-0.644,0.446-0.962,0.582c-0.318,0.135-0.632,0.227-0.944,0.277
	c-0.204,0.037-0.408,0.052-0.611,0.046c-0.108,0.006-0.213,0.003-0.315-0.009c-0.3-0.026-0.585-0.073-0.854-0.141
	c-0.63-0.144-1.232-0.401-1.808-0.77C5.594,15.46,6.267,16.086,7.061,16.547"/>
</svg>
